    <svg width="302" height="87" viewBox="0 0 302 87" fill="none" xmlns="http://www.w3.org/2000/svg">
        <path fill-rule="evenodd" clip-rule="evenodd" d="M164.157 0.579456C158.067 -0.333778 146.15 -0.151273 135.812 1.01193C106.69 4.28991 84.0749 14.2574 78.6222 26.2182L76.6696 30.4996L66.757 29.3272C46.386 26.9177 26.8115 22.7904 12.0885 17.7995C1.72211 14.2858 -0.788489 14.1303 0.197779 17.0667C2.51867 23.9713 35.5636 33.7172 67.7832 36.998L76.8937 37.9255L79.2523 42.5605C82.1301 48.2153 90.5794 56.4465 99.275 62.0672C108.245 67.8633 138.563 79.2837 151.752 81.8331C169.597 85.2844 184.41 86.6649 202.703 86.5839C226.021 86.4803 258.753 82.8706 272.408 78.8974C276.229 77.7854 279.623 76.9559 279.949 77.0553C280.276 77.1548 279.739 78.9727 278.756 81.0953C275.471 88.1903 278.94 88.8727 289.68 83.2435C296.414 79.7134 300.85 74.1204 300.955 69.0266C300.995 67.1063 301.416 65.1258 301.891 64.6251C303.086 63.3661 294.179 59.8331 286.827 58.6501C280.524 57.636 246.747 57.3136 242.326 58.2254C240.054 58.6941 239.325 59.2409 238.855 60.8287C237.877 64.1231 242.168 65.4546 253.964 65.5185C270.606 65.6073 279.477 66.0887 278.777 66.8642C276.339 69.567 255.578 73.695 234.288 75.7111C202.267 78.7426 175.759 77.7925 151.476 72.7427C138.262 69.9945 116.015 61.5467 107.415 56.0105C97.4544 49.6001 87.9723 40.1361 90.2954 38.9261C90.6981 38.7173 97.4178 38.2805 105.23 37.956C144.469 36.3284 178.889 25.9064 182.579 14.5357C183.049 13.0906 182.692 10.5093 181.785 8.79998C180.287 5.96583 179.563 5.48365 173.64 3.35893C170.067 2.07642 165.798 0.825873 164.157 0.579456ZM175.838 9.83181C176.225 10.5029 176.172 12.1973 175.717 13.5977C172.768 22.6824 137.147 30.991 100.296 31.1877C91.8641 31.2332 88.9364 30.9718 88.588 30.1403C88.3328 29.5295 89.7684 26.9759 91.7776 24.4627C98.1989 16.4346 109.788 11.3188 130.648 7.30373C144.356 4.66486 151.979 4.06338 161.74 4.8495C168.633 5.40554 174.471 7.46848 175.838 9.83181Z" fill="#FF7698"/>
    </svg>
