<svg width="70" height="64" viewBox="0 0 70 64" fill="none" xmlns="http://www.w3.org/2000/svg">
<path d="M47.76 51.0424C53.4393 48.4101 57.7747 43.7833 59.82 38.1719C59.95 37.8351 62.08 49.2091 69.32 51.3979C69.32 51.3979 60.61 55.3077 58.54 63.0431C58.51 63.146 58.01 56.8978 47.76 51.0424Z" fill="#EDAA00"/>
<path d="M0 18.791C5.48176 16.2457 9.67087 11.783 11.66 6.3694C11.78 6.03267 13.85 17.0138 20.84 19.1277C20.84 19.1277 12.42 22.8692 10.43 30.3521C10.38 30.4737 9.9 24.4406 0 18.791Z" fill="#EDAA00"/>
<path d="M31.47 15.6202C38.3677 12.4273 43.6396 6.81721 46.14 0.00900164C46.3 -0.402557 48.9 13.4221 57.66 16.0879C57.66 16.0879 47.06 20.8395 44.55 30.2492C44.56 30.3802 43.95 22.7757 31.47 15.6202Z" fill="#EDAA00"/>
</svg>
