<svg width="340" height="18" viewBox="0 0 340 18" fill="none" xmlns="http://www.w3.org/2000/svg">
    <path d="M203.033 0.297791C166.791 1.24245 130.51 2.20527 94.2681 3.14993C91.8916 3.20443 87.3762 3.91292 86.5444 5.09375C85.7127 6.27457 88.2476 6.76506 90.5845 6.7469C170.277 5.94757 250.207 5.16641 329.582 9.05404L333.305 5.40258C250.009 10.9979 165.841 13.741 81.633 13.5048C57.7095 13.4322 33.7463 13.1233 9.86244 12.5783L6.09963 16.248C81.3161 13.2505 156.968 12.76 232.383 14.7402C235.393 14.8128 240.186 14.2315 241.81 12.9598C243.434 11.6882 240.344 11.1069 237.928 11.0342C161.325 8.99954 84.4848 9.54454 8.08006 12.6147C5.62433 12.7055 1.06936 13.3777 0.197974 14.5948C-0.673413 15.812 1.98035 16.2298 4.31725 16.2843C89.5943 18.1918 175.188 17.1381 260.109 13.1052C283.913 11.9788 307.679 10.5982 331.364 8.99954C333.82 8.83605 338.296 8.29105 339.207 7.0194C340.118 5.74774 337.385 5.45708 335.127 5.34808C255.673 1.47861 175.743 2.27794 96.0505 3.1136L92.3669 6.71056C128.609 5.74774 164.89 4.78492 201.132 3.84026C203.508 3.78576 208.657 2.98643 209.053 1.67844C209.449 0.225125 205.053 0.261458 203.033 0.315957V0.297791Z" fill="#FF0054"/>
</svg>
